------------------ solo_girl_6 --------------------------

Video
ID                               : 1
Format                           : VC-1 ----- Windows Media
Format profile                   : MP@LL
Codec ID                         : WMV3
Codec ID/Info                    : Windows Media Video 9
Codec ID/Hint                    : WMV3
Duration                         : 2mn 50s
Bit rate mode                    : Constant
Bit rate                         : 700 Kbps
Width                            : 320 pixels
Height                           : 240 pixels
Display aspect ratio             : 4/3
Frame rate                       : 29.970 fps
Resolution                       : 24 bits
Scan type                        : Progressive
Bits/(Pixel*Frame)               : 0.304
Stream size                      : 14.2 MiB (84%)
Language                         : en-us

Audio
ID                               : 2
Format                           : WMA2
Format profile                   : L1
Codec ID                         : 161
Codec ID/Info                    : Windows Media Audio 2
Description of the codec         : Windows Media Audio 9.2 - 128 kbps, 44 kHz, stereo 1-pass CBR
Duration                         : 2mn 50s
Bit rate mode                    : Constant
Bit rate                         : 128 Kbps
Channel(s)                       : 2 channels
Sampling rate                    : 44.1 KHz
Resolution                       : 16 bits
Stream size                      : 2.60 MiB (15%)
Language                         : en-us
